<?xml version="1.0" encoding="utf-8"?>
<!-- Color palette: https://colorhunt.co/palette/f1f6f9394867212a3e9ba4b5 -->
<svg viewBox="0 0 64 64" width="64" height="64" xmlns="http://www.w3.org/2000/svg">
  <rect width="64" height="64" fill="#212A3E" rx="8.0" ry="8.0" />
  <path d="M 38.658 29.849 C 31.472 29.849 25.626 35.695 25.626 42.881 C 25.626 50.067 31.473 55.912 38.658 55.912 C 45.843 55.912 51.689 50.066 51.689 42.881 C 51.689 35.696 45.844 29.849 38.658 29.849 Z M 38.658 52.912 C 33.126 52.912 28.626 48.412 28.626 42.881 C 28.626 37.349 33.126 32.849 38.658 32.849 C 44.189 32.849 48.689 37.349 48.689 42.881 C 48.689 48.412 44.189 52.912 38.658 52.912 Z" fill="#9BA4B5" />
  <path d="M 18.367 10.607 C 14.581 10.607 11.5 13.688 11.5 17.474 C 11.5 21.26 14.581 24.341 18.367 24.341 C 22.153 24.341 25.233 21.26 25.233 17.474 C 25.233 13.688 22.153 10.607 18.367 10.607 Z M 18.367 21.341 C 16.234 21.341 14.5 19.607 14.5 17.474 C 14.5 15.341 16.234 13.607 18.367 13.607 C 20.499 13.607 22.233 15.341 22.233 17.474 C 22.233 19.607 20.499 21.341 18.367 21.341 Z" fill="#9BA4B5" />
  <circle cx="17.579" cy="41.244" r="5.367" fill="#F1F6F9" />
  <circle cx="26.142" cy="26.133" r="2.409" fill="#F1F6F9" />
  <circle cx="34.457" cy="11.114" r="3.114" fill="#F1F6F9" />
  <circle cx="45.833" cy="22.002" r="4.497" fill="#F1F6F9" />
</svg>